<?xml version="1.0" encoding="UTF-8" standalone="no"?>
<!-- Created with Inkscape (http://www.inkscape.org/) -->
<svg id="svg3289" xmlns:rdf="http://www.w3.org/1999/02/22-rdf-syntax-ns#" xmlns="http://www.w3.org/2000/svg" height="90" width="90" version="1.1" xmlns:cc="http://creativecommons.org/ns#" xmlns:xlink="http://www.w3.org/1999/xlink" xmlns:dc="http://purl.org/dc/elements/1.1/">
 <metadata id="metadata3294">
  <rdf:RDF>
   <cc:Work rdf:about="">
    <dc:format>image/svg+xml</dc:format>
    <dc:type rdf:resource="http://purl.org/dc/dcmitype/StillImage"/>
    <dc:title/>
   </cc:Work>
  </rdf:RDF>
 </metadata>
 <g id="layer1" transform="translate(0 -962.36)">
  <g id="g4451" transform="translate(-789 604.36)">
   <g id="g4507" transform="matrix(2 0 0 2 397 3.2756)">
    <rect id="rect4509" style="fill:none" height="45" width="45" y="177.36" x="196"/>
    <g id="g3044" style="fill:#808080" transform="matrix(.85406 -.85406 .85406 .85406 -139.95 196.7)">
     <path id="path3026" d="m208 194.36c-1 0.00001-2 3.5-2 7v7c0 2.4953 0.49812 5.8366 0.95312 9.3516s0.58159 4.6484 1.0469 4.6484c0.46529 0 0.59187-1.1334 1.0469-4.6484 0.455-3.515 0.95313-6.8563 0.95313-9.3516v-7c0-3.5-1-7-2-7z" style="fill:#808080"/>
     <path id="path3035" d="m206.5 203.86-12.975 7.4146c-1.0174 0.58739-1.0245 1.0854-1.0245 2.0854 0 0.48119 0 1 2.0118 0.5689l11.99-2.57z" style="fill:#808080"/>
     <path id="path3051" style="fill:#808080" d="m209.5 203.86 12.975 7.4146c1.0174 0.58739 1.0245 1.0854 1.0245 2.0854 0 0.48119 0 1-2.0118 0.5689l-11.99-2.57z"/>
     <path id="path3053" style="fill:#808080" d="m208 217.86-5.0975 3.213c-0.39969 0.23076-0.4025 0.62629-0.4025 1.0191 0 0.18904 0 0.39286 0.79036 0.2235l4.71-1z"/>
     <path id="path3057" d="m208 217.86 5.0975 3.213c0.39969 0.23076 0.4025 0.62629 0.4025 1.0191 0 0.18904 0 0.39286-0.79036 0.2235l-4.71-1z" style="fill:#808080"/>
    </g>
   </g>
  </g>
 </g>
</svg>
