<?xml version="1.0" encoding="UTF-8" standalone="no"?>
<!-- Created with Inkscape (http://www.inkscape.org/) -->

<svg
   xmlns:dc="http://purl.org/dc/elements/1.1/"
   xmlns:cc="http://creativecommons.org/ns#"
   xmlns:rdf="http://www.w3.org/1999/02/22-rdf-syntax-ns#"
   xmlns:svg="http://www.w3.org/2000/svg"
   xmlns="http://www.w3.org/2000/svg"
   xmlns:sodipodi="http://sodipodi.sourceforge.net/DTD/sodipodi-0.dtd"
   xmlns:inkscape="http://www.inkscape.org/namespaces/inkscape"
   width="90"
   height="90"
   id="svg4230"
   version="1.1"
   inkscape:version="0.48+devel r12277"
   sodipodi:docname="setting-diagnostics.svg">
  <defs
     id="defs4232" />
  <sodipodi:namedview
     id="base"
     pagecolor="#ffffff"
     bordercolor="#666666"
     borderopacity="1.0"
     inkscape:pageopacity="0.0"
     inkscape:pageshadow="2"
     inkscape:zoom="5.0931703"
     inkscape:cx="21.204866"
     inkscape:cy="6.4792647"
     inkscape:document-units="px"
     inkscape:current-layer="g4081"
     showgrid="false"
     fit-margin-top="0"
     fit-margin-left="0"
     fit-margin-right="0"
     fit-margin-bottom="0" />
  <metadata
     id="metadata4235">
    <rdf:RDF>
      <cc:Work
         rdf:about="">
        <dc:format>image/svg+xml</dc:format>
        <dc:type
           rdf:resource="http://purl.org/dc/dcmitype/StillImage" />
        <dc:title></dc:title>
      </cc:Work>
    </rdf:RDF>
  </metadata>
  <g
     inkscape:label="Layer 1"
     inkscape:groupmode="layer"
     id="layer1"
     transform="translate(-0.7143,-261.64789)">
    <g
       transform="translate(0.7143,-700.42863)"
       id="g4081"
       inkscape:label="Layer 1">
      <path
         style="fill:#cccccc;fill-opacity:1"
         d="M 38.0625 15 C 17.2932 15 15 14.99755 15 28.84375 L 15 61.15625 C 15 75.00255 17.2932 75 38.0625 75 L 51.9375 75 C 72.7068 75 75 75.00005 75 61.15625 L 75 28.84375 C 75 14.99755 72.7068 15 51.9375 15 L 38.0625 15 z M 38.1875 19.9375 L 47.0625 50.53125 L 48.78125 45 L 68 45 L 71 45 L 71 51 L 68 51 L 53.21875 51 L 46.90625 71.5 L 37.8125 40.09375 L 34.15625 51 L 22 51 L 19 51 L 19 45 L 22 45 L 29.84375 45 L 38.1875 19.9375 z "
         transform="translate(0,962.07652)"
         id="path4093" />
      <rect
         y="962.0766"
         x="0"
         height="89.999916"
         width="90"
         id="rect4085"
         style="color:#000000;fill:none;stroke:none;stroke-width:7.5;marker:none;visibility:visible;display:inline;overflow:visible;enable-background:accumulate" />
    </g>
  </g>
</svg>
