<?xml version="1.0" encoding="UTF-8" standalone="no"?>
<!-- Created with Inkscape (http://www.inkscape.org/) -->

<svg
   xmlns:dc="http://purl.org/dc/elements/1.1/"
   xmlns:cc="http://creativecommons.org/ns#"
   xmlns:rdf="http://www.w3.org/1999/02/22-rdf-syntax-ns#"
   xmlns:svg="http://www.w3.org/2000/svg"
   xmlns="http://www.w3.org/2000/svg"
   xmlns:sodipodi="http://sodipodi.sourceforge.net/DTD/sodipodi-0.dtd"
   xmlns:inkscape="http://www.inkscape.org/namespaces/inkscape"
   width="89.999954"
   height="89.999954"
   id="svg4031"
   version="1.1"
   inkscape:version="0.48+devel r12322"
   sodipodi:docname="settings-backgrounds02.svg">
  <defs
     id="defs4033" />
  <sodipodi:namedview
     id="base"
     pagecolor="#ffffff"
     bordercolor="#666666"
     borderopacity="1.0"
     inkscape:pageopacity="0.0"
     inkscape:pageshadow="2"
     inkscape:zoom="4.0745363"
     inkscape:cx="33.770087"
     inkscape:cy="26.714728"
     inkscape:document-units="px"
     inkscape:current-layer="layer1"
     showgrid="false"
     fit-margin-top="0"
     fit-margin-left="0"
     fit-margin-right="0"
     fit-margin-bottom="0" />
  <metadata
     id="metadata4036">
    <rdf:RDF>
      <cc:Work
         rdf:about="">
        <dc:format>image/svg+xml</dc:format>
        <dc:type
           rdf:resource="http://purl.org/dc/dcmitype/StillImage" />
        <dc:title></dc:title>
      </cc:Work>
    </rdf:RDF>
  </metadata>
  <g
     inkscape:label="Layer 1"
     inkscape:groupmode="layer"
     id="layer1"
     transform="translate(-320.7143,-347.3622)">
    <g
       transform="translate(-1771.2857,1594.9999)"
       id="g4002">
      <rect
         style="color:#000000;fill:none;stroke:none;stroke-width:7.5;marker:none;visibility:visible;display:inline;overflow:visible;enable-background:accumulate"
         id="rect3949"
         width="89.999954"
         height="89.999954"
         x="2092"
         y="-1247.6377" />
      <path
         style="opacity:0.5;fill:#808080;fill-opacity:1"
         clip-path="none"
         d="m 359.78125,362.375 c -16.50907,0.19158 -18.9437,1.71558 -19.0625,13.40625 1.68953,-0.94746 3.3245,-1.3222 5.1875,-1.4375 1.9098,-0.1183 4.0623,0.0312 6.8125,0.0312 l 13,0 c 1.3465,0 2.5921,-0.016 3.75,0 3.9262,0.0532 6.9189,-0.1141 9.625,2.375 1.353,1.2446 2.0316,2.9445 2.3125,4.4375 0.2805,1.493 0.3125,2.9711 0.3125,4.6875 0,1.9631 -0.002,3.5855 -0.4375,5.3125 -0.435,1.727 -1.7024,3.6861 -3.4375,4.6875 -0.0425,0.0245 -0.0826,0.0387 -0.125,0.0625 l 0,26.375 c 15.94535,-0.25723 18,-2.02454 18,-14.34375 l 0,-31.21875 c 0,-14.4 -2.73585,-14.375 -27.28125,-14.375 l -0.4375,0 C 364.93183,362.375 362.2049,362.34687 359.78125,362.375 z m -7.0625,20 c -5.2675,0 -7.74485,0.4461 -7.78125,0.375 -0.0252,0.12889 -0.0663,0.40961 -0.0937,0.625 l 28.78125,0 c -0.0212,-0.24466 -0.0347,-0.53945 -0.0625,-0.6875 -0.01,-0.049 0.01,-0.0265 0,-0.0625 0.1035,0.1932 -0.94695,-0.206 -4.21875,-0.25 -1.0025,-0.014 -2.2215,0 -3.625,0 L 352.71875,382.375 Z"
         transform="translate(1771.2857,-1594.9999)"
         id="path3953"
         inkscape:connector-curvature="0" />
      <path
         sodipodi:nodetypes="cssssssc"
         style="color:#000000;fill:#808080;fill-opacity:1;fill-rule:nonzero;stroke:none;stroke-width:2;marker:none;visibility:visible;display:inline;overflow:visible;enable-background:accumulate"
         d="m 2140.6876,-1216.6378 c 7.5605,0.1025 8.3125,0.9403 8.3125,7.5 0,7.4968 -1,7.5 -12,7.5 l -13,0 c -11.0001,0 -12.0001,0 -12.0001,-7.5 0,-7.4968 1,-7.5 12.0001,-7.5 l 13,0 C 2138.3751,-1216.6378 2139.6074,-1216.6525 2140.6876,-1216.6378 Z"
         id="path3957"
         inkscape:connector-curvature="0" />
      <path
         style="font-size:xx-small;font-style:normal;font-variant:normal;font-weight:normal;font-stretch:normal;text-indent:0;text-align:start;text-decoration:none;line-height:normal;letter-spacing:normal;word-spacing:normal;text-transform:none;direction:ltr;block-progression:tb;writing-mode:lr-tb;text-anchor:start;baseline-shift:baseline;color:#000000;color-interpolation:sRGB;color-interpolation-filters:linearRGB;fill:#808080;fill-opacity:1;stroke:none;stroke-width:3;marker:none;visibility:visible;display:inline;overflow:visible;enable-background:accumulate;clip-rule:nonzero;color-rendering:auto;image-rendering:auto;shape-rendering:auto;text-rendering:auto;font-family:sans-serif;-inkscape-font-specification:sans-serif"
         d="m 2114.5312,-1210.625 c -1.5037,-0.023 -2.6485,-0.054 -3.6562,0.062 -1.0077,0.1162 -2.0086,0.4074 -2.7188,1.1875 -0.7101,0.7801 -0.9551,1.7581 -1.0624,2.8125 -0.1074,1.0544 -0.094,2.3125 -0.094,3.9375 0,1.7981 0.3077,3.2846 1,4.5 0.6923,1.2154 1.7654,2.0842 2.9688,2.5938 2.4067,1.019 5.273,0.9378 8.5312,0.9062 l 8.5,0 0,4 0,1.5 3,0 0,-1.5 0,-5.5 a 1.50015,1.50015 0 0 0 -1.5,-1.5 l -10,0 c -3.2418,0.032 -5.8755,-0.066 -7.3438,-0.6875 -0.7341,-0.3108 -1.2078,-0.6899 -1.5624,-1.3125 -0.3547,-0.6226 -0.5938,-1.5481 -0.5938,-3 0,-1.625 0.014,-2.837 0.094,-3.625 0.08,-0.788 0.2101,-1.0499 0.25,-1.0938 0.04,-0.044 0.1639,-0.1716 0.8437,-0.25 0.6798,-0.078 1.785,-0.054 3.2813,-0.031 l 1.5,0 0.062,-3 L 2114.5312,-1210.625 Z"
         id="path3959"
         inkscape:connector-curvature="0" />
      <path
         inkscape:connector-curvature="0"
         id="path3961"
         d="m 2125.0035,-1186.2627 c 0.055,-3.9792 1.0015,-4.3751 4.4985,-4.3751 3.9966,0 4.4981,0.5263 4.4981,6.3158 l 0,5.3684 c 0,5.7895 -0.4998,6.3158 -4.4981,6.3158 -3.9966,0 -4.4985,-0.5263 -4.4985,-6.3158 l 0,-5.3684 C 2125.0035,-1185.0456 2124.9957,-1185.6943 2125.0035,-1186.2627 Z"
         style="color:#000000;fill:#808080;fill-opacity:1;fill-rule:nonzero;stroke:none;stroke-width:2;marker:none;visibility:visible;display:inline;overflow:visible;enable-background:accumulate"
         sodipodi:nodetypes="cssssssc" />
    </g>
  </g>
</svg>
