<?xml version="1.0" encoding="UTF-8" standalone="no"?>
<!-- Created with Inkscape (http://www.inkscape.org/) -->

<svg
   xmlns:dc="http://purl.org/dc/elements/1.1/"
   xmlns:cc="http://creativecommons.org/ns#"
   xmlns:rdf="http://www.w3.org/1999/02/22-rdf-syntax-ns#"
   xmlns:svg="http://www.w3.org/2000/svg"
   xmlns="http://www.w3.org/2000/svg"
   xmlns:sodipodi="http://sodipodi.sourceforge.net/DTD/sodipodi-0.dtd"
   xmlns:inkscape="http://www.inkscape.org/namespaces/inkscape"
   width="90"
   height="90"
   id="svg3180"
   version="1.1"
   inkscape:version="0.48+devel r12322"
   sodipodi:docname="settings-keyboard.svg">
  <defs
     id="defs3182" />
  <sodipodi:namedview
     id="base"
     pagecolor="#ffffff"
     bordercolor="#666666"
     borderopacity="1.0"
     inkscape:pageopacity="0.0"
     inkscape:pageshadow="2"
     inkscape:zoom="5.0931703"
     inkscape:cx="39.818028"
     inkscape:cy="20.743465"
     inkscape:document-units="px"
     inkscape:current-layer="layer1"
     showgrid="false"
     fit-margin-top="0"
     fit-margin-left="0"
     fit-margin-right="0"
     fit-margin-bottom="0" />
  <metadata
     id="metadata3185">
    <rdf:RDF>
      <cc:Work
         rdf:about="">
        <dc:format>image/svg+xml</dc:format>
        <dc:type
           rdf:resource="http://purl.org/dc/dcmitype/StillImage" />
        <dc:title></dc:title>
      </cc:Work>
    </rdf:RDF>
  </metadata>
  <g
     inkscape:label="Layer 1"
     inkscape:groupmode="layer"
     id="layer1"
     transform="translate(456.42857,-738.79075)">
    <g
       transform="translate(-456.42857,-223.28577)"
       id="g3634"
       inkscape:label="Layer 1">
      <path
         style="fill:#808080;fill-opacity:1"
         d="M 32.0625,21 C 11.2932,21 9,20.99755 9,34.84375 l 0,20.3125 C 9,69.00255 11.2932,69 32.0625,69 l 26.875,0 C 79.7068,69 82,69.00005 82,55.15625 l 0,-20.3125 C 82,20.99755 79.7068,21 58.9375,21 Z M 18,29 c 0.345394,-0.0075 0.731909,-3.5e-4 1.15625,0 l 0.6875,0 C 23.1595,29 24,28.9973 24,33 c 0,4 -0.8405,4 -4.15625,4 l -0.6875,0 C 15.8405,37 15,37.0028 15,33 15,29.497637 15.582245,29.052849 18,29 z m 13,0 c 0.345394,-0.0075 0.731909,-3.5e-4 1.15625,0 l 0.6875,0 C 36.1595,29 37,28.9973 37,33 c 0,4 -0.8405,4 -4.15625,4 l -0.6875,0 C 28.8405,37 28,37.0028 28,33 28,29.497637 28.582245,29.052849 31,29 z m 13,0 c 0.345394,-0.0075 0.731909,-3.5e-4 1.15625,0 l 0.6875,0 C 49.1595,29 50,28.9973 50,33 c 0,4 -0.8405,4 -4.15625,4 l -0.6875,0 C 41.8405,37 41,37.0028 41,33 41,29.497637 41.582245,29.052849 44,29 z m 13,0 c 0.345394,-0.0075 0.731909,-3.5e-4 1.15625,0 l 0.6875,0 C 62.1595,29 63,28.9973 63,33 c 0,4 -0.8405,4 -4.15625,4 l -0.6875,0 C 54.8405,37 54,37.0028 54,33 54,29.497637 54.582245,29.052849 57,29 z m 13,0 c 0.345394,-0.0075 0.731909,-3.5e-4 1.15625,0 l 0.6875,0 C 75.1595,29 76,28.9973 76,33 c 0,4 -0.8405,4 -4.15625,4 l -0.6875,0 C 67.8405,37 67,37.0028 67,33 67,29.497637 67.582245,29.052849 70,29 Z M 18,41 c 0.345394,-0.0076 0.731909,-3.5e-4 1.15625,0 l 0.6875,0 C 23.1595,41 24,40.9973 24,45 c 0,4 -0.8405,4 -4.15625,4 l -0.6875,0 C 15.8405,49 15,49.0028 15,45 15,41.497637 15.582245,41.052849 18,41 z m 13,0 c 0.345394,-0.0076 0.731909,-3.5e-4 1.15625,0 l 0.6875,0 C 36.1595,41 37,40.9973 37,45 c 0,4 -0.8405,4 -4.15625,4 l -0.6875,0 C 28.8405,49 28,49.0028 28,45 28,41.497637 28.582245,41.052849 31,41 z m 13,0 c 0.345394,-0.0076 0.731909,-3.5e-4 1.15625,0 l 0.6875,0 C 49.1595,41 50,40.9973 50,45 c 0,4 -0.8405,4 -4.15625,4 l -0.6875,0 C 41.8405,49 41,49.0028 41,45 41,41.497637 41.582245,41.052849 44,41 z m 13,0 c 0.345394,-0.0076 0.731909,-3.5e-4 1.15625,0 l 0.6875,0 C 62.1595,41 63,40.9973 63,45 c 0,4 -0.8405,4 -4.15625,4 l -0.6875,0 C 54.8405,49 54,49.0028 54,45 54,41.497637 54.582245,41.052849 57,41 z m 13,0 c 0.345394,-0.0076 0.731909,-3.5e-4 1.15625,0 l 0.6875,0 C 75.1595,41 76,40.9973 76,45 c 0,4 -0.8405,4 -4.15625,4 l -0.6875,0 C 67.8405,49 67,49.0028 67,45 67,41.497637 67.582245,41.052849 70,41 Z M 18,53 c 0.345394,-0.0076 0.731909,-3.5e-4 1.15625,0 l 0.6875,0 C 23.1595,53 24,52.9973 24,57 c 0,4 -0.8405,4 -4.15625,4 l -0.6875,0 C 15.8405,61 15,61.0028 15,57 15,53.497637 15.582245,53.052849 18,53 z m 13.125,0 c 0.361841,-0.0076 0.774203,-3.5e-4 1.21875,0 l 26.3125,0 C 62.129893,53 63,52.9973 63,57 c 0,4 -0.870107,4 -4.34375,4 l -26.3125,0 C 28.870107,61 28,61.0028 28,57 28,53.497637 28.592113,53.052849 31.125,53 Z M 70,53 c 0.345394,-0.0076 0.731909,-3.5e-4 1.15625,0 l 0.6875,0 C 75.1595,53 76,52.9973 76,57 c 0,4 -0.8405,4 -4.15625,4 l -0.6875,0 C 67.8405,61 67,61.0028 67,57 67,53.497637 67.582245,53.052849 70,53 Z"
         transform="translate(0,962.07652)"
         id="path3636"
         inkscape:connector-curvature="0"
         sodipodi:nodetypes="sssssssssscssssssscssssssscssssssscssssssscssssssscssssssscssssssscssssssscssssssscssssssscssssssscssssssscssssss" />
      <rect
         y="962.0766"
         x="0"
         height="89.999916"
         width="90"
         id="rect3638"
         style="color:#000000;fill:none;stroke:none;stroke-width:7.5;marker:none;visibility:visible;display:inline;overflow:visible;enable-background:accumulate" />
    </g>
  </g>
</svg>
