<?xml version="1.0" encoding="UTF-8" standalone="no"?>
<!-- Created with Inkscape (http://www.inkscape.org/) -->
<svg id="svg3289" xmlns:rdf="http://www.w3.org/1999/02/22-rdf-syntax-ns#" xmlns="http://www.w3.org/2000/svg" height="90" width="90" version="1.1" xmlns:cc="http://creativecommons.org/ns#" xmlns:xlink="http://www.w3.org/1999/xlink" xmlns:dc="http://purl.org/dc/elements/1.1/">
 <metadata id="metadata3294">
  <rdf:RDF>
   <cc:Work rdf:about="">
    <dc:format>image/svg+xml</dc:format>
    <dc:type rdf:resource="http://purl.org/dc/dcmitype/StillImage"/>
    <dc:title/>
   </cc:Work>
  </rdf:RDF>
 </metadata>
 <g id="layer1" transform="translate(-0.0000408 -962.36)">
  <path id="path3783" style="stroke-width:1.8165;color:#000000;stroke:#808080;fill:none" d="m38.636 51.364a9 9 0 1 1 12.728 0.000001" transform="matrix(3.0278 0 0 3.0278 -91.25 871.11)"/>
  <path id="path3785" style="stroke-width:3.1429;color:#000000;stroke:#808080;fill:none" d="m38.636 51.364a9 9 0 1 1 12.728 0.000001" transform="matrix(1.75 0 0 1.75 -33.75 928.61)"/>
  <rect id="rect4431" style="fill:none" height="90" width="90" y="962.36" x="0.0000408"/>
  <path id="path3781" style="color:#000000;fill:#808080" d="m54 45a9 9 0 1 1 -18 0 9 9 0 1 1 18 0z" transform="matrix(.83333 0 0 .83333 7.5001 969.86)"/>
  <path id="rect3787" style="color:#000000;fill:#808080" d="m41 57.375v11.625c0 5 0 6 4 6s4-1 4-6v-11.625c-1.257 0.405-2.608 0.625-4 0.625s-2.743-0.22-4-0.625z" transform="translate(0.0000408 962.36)"/>
 </g>
</svg>
