<?xml version="1.0" encoding="UTF-8" standalone="no"?>
<!-- Created with Inkscape (http://www.inkscape.org/) -->

<svg
   xmlns:dc="http://purl.org/dc/elements/1.1/"
   xmlns:cc="http://creativecommons.org/ns#"
   xmlns:rdf="http://www.w3.org/1999/02/22-rdf-syntax-ns#"
   xmlns:svg="http://www.w3.org/2000/svg"
   xmlns="http://www.w3.org/2000/svg"
   xmlns:sodipodi="http://sodipodi.sourceforge.net/DTD/sodipodi-0.dtd"
   xmlns:inkscape="http://www.inkscape.org/namespaces/inkscape"
   width="90"
   height="90"
   id="svg3315"
   version="1.1"
   inkscape:version="0.48+devel r12277"
   sodipodi:docname="setting-brightness.svg">
  <defs
     id="defs3317">
    <clipPath
       clipPathUnits="userSpaceOnUse"
       id="clipPath4131">
      <path
         style="color:#000000;fill:#ff00ff;stroke:none;stroke-width:2;marker:none;visibility:visible;display:inline;overflow:visible;enable-background:accumulate"
         d="m 5.6053,969.2679 0,30 11.0625,0 c 0.05658,-0.83224 0.162041,-1.62236 0.34375,-2.34375 0.350314,-1.39075 1.194961,-2.73356 2.46875,-3.46875 2.547577,-1.47038 5.624806,-1.1875 11.125,-1.1875 l 14,0 c 1.360745,0 2.599809,-0.0152 3.71875,0 3.853206,0.0522 6.392941,0.0781 8.3125,1.84375 0.959779,0.88283 1.483984,2.09595 1.71875,3.34375 0.106753,0.56739 0.152324,1.17337 0.1875,1.8125 l 0.0625,0 0,2.5 0,39.5 31,0 0,-42 0,-30 -37,0 L 5.6053,969.2679 z m 25,27 c -5.499806,0 -8.422577,0.25083 -9.125,0.65625 -0.351211,0.20271 -0.412814,0.25043 -0.59375,0.96875 -0.08231,0.32678 -0.140412,0.80628 -0.1875,1.375 l 33.8125,0 c -0.02852,-0.38852 -0.04219,-0.78847 -0.09375,-1.0625 -0.142499,-0.7574 -0.295467,-0.99686 -0.46875,-1.15625 -0.346566,-0.31878 -1.948956,-0.73095 -5.65625,-0.78125 -1.041259,-0.0142 -2.298245,0 -3.6875,0 L 30.6053,996.2679 Z"
         id="path4133"
         inkscape:connector-curvature="0" />
    </clipPath>
  </defs>
  <sodipodi:namedview
     id="base"
     pagecolor="#ffffff"
     bordercolor="#666666"
     borderopacity="1.0"
     inkscape:pageopacity="0.0"
     inkscape:pageshadow="2"
     inkscape:zoom="9.9475983"
     inkscape:cx="42.095588"
     inkscape:cy="41.869403"
     inkscape:document-units="px"
     inkscape:current-layer="g3375"
     showgrid="false"
     fit-margin-top="0"
     fit-margin-left="0"
     fit-margin-right="0"
     fit-margin-bottom="0" />
  <metadata
     id="metadata3320">
    <rdf:RDF>
      <cc:Work
         rdf:about="">
        <dc:format>image/svg+xml</dc:format>
        <dc:type
           rdf:resource="http://purl.org/dc/dcmitype/StillImage" />
        <dc:title></dc:title>
      </cc:Work>
    </rdf:RDF>
  </metadata>
  <g
     inkscape:label="Layer 1"
     inkscape:groupmode="layer"
     id="layer1"
     transform="translate(-340.71429,-515.93361)">
    <g
       transform="translate(341.10899,-447.33429)"
       id="g3375"
       inkscape:label="Layer 1">
      <g
         inkscape:label="Layer 1"
         id="g3782"
         transform="translate(-0.3947,0.90571738)">
        <path
           inkscape:connector-curvature="0"
           id="path3784"
           d="m 44.999989,990.505 c 8.836533,0 15.999998,7.16344 15.999998,16 0,8.8365 -7.163465,16 -15.999998,16 l 0,-5.3333 0,-21.33337 L 44.999989,990.505 Z"
           style="color:#000000;fill:#808080;fill-opacity:1;fill-rule:nonzero;stroke:none;stroke-width:3;marker:none;visibility:visible;display:inline;overflow:visible;enable-background:accumulate" />
        <path
           inkscape:connector-curvature="0"
           style="font-size:xx-small;font-style:normal;font-variant:normal;font-weight:normal;font-stretch:normal;text-indent:0;text-align:start;text-decoration:none;line-height:normal;letter-spacing:normal;word-spacing:normal;text-transform:none;direction:ltr;block-progression:tb;writing-mode:lr-tb;text-anchor:start;baseline-shift:baseline;color:#000000;fill:#808080;fill-opacity:1;fill-rule:nonzero;stroke:none;stroke-width:6;marker:none;visibility:visible;display:inline;overflow:visible;enable-background:accumulate;font-family:Sans;-inkscape-font-specification:Sans"
           d="m 1704,822 0,9 c 0.02,-0.003 0.042,0.003 0.062,0 0.9625,-0.13479 1.939,-0.21875 2.9375,-0.21875 0.9985,0 1.975,0.084 2.9375,0.21875 0.02,0.003 0.042,-0.003 0.062,0 l 0,-9 L 1704,822 z m -16.0938,6.65625 -4.25,4.25 6.375,6.375 0.125,-0.125 c 1.1464,-1.49621 2.5038,-2.85368 4,-4 l 0.125,-0.125 L 1687.9062,828.65625 z m 38.1876,0 -6.375,6.375 0.125,0.125 c 1.4962,1.14632 2.8536,2.50379 4,4 l 0.125,0.125 6.375,-6.375 L 1726.0938,828.65625 Z M 1677,849 l 0,6 9,0 0,-0.0625 c -0.1348,-0.96254 -0.2188,-1.93904 -0.2188,-2.9375 1e-4,-0.99846 0.084,-1.97496 0.2188,-2.9375 L 1686,849 1677,849 z m 51,0 c 0,0.0204 0,0.0421 0,0.0625 0.1348,0.96254 0.2188,1.93904 0.2188,2.9375 -1e-4,0.99846 -0.084,1.97496 -0.2188,2.9375 l 0,0.0625 9,0 0,-6 L 1728,849 z m -37.9688,15.71875 -6.375,6.375 4.25,4.25 6.375,-6.375 -0.125,-0.125 c -1.4962,-1.14632 -2.8536,-2.50379 -4,-4 L 1690.0312,864.71875 z m 33.9376,0 -0.125,0.125 c -1.1464,1.49621 -2.5038,2.85368 -4,4 l -0.125,0.125 6.375,6.375 4.25,-4.25 L 1723.9688,864.71875 Z M 1704,873 l 0,9 6,0 0,-9 c -0.02,0.003 -0.042,-0.003 -0.062,0 -0.9625,0.13479 -1.939,0.21875 -2.9375,0.21875 -0.9985,0 -1.975,-0.084 -2.9375,-0.21875 C 1704.0421,872.99714 1704.0204,873.00292 1704,873 Z"
           transform="translate(-1662,154.505)"
           id="path3786" />
        <rect
           style="color:#000000;fill:none;stroke:none;stroke-width:7.5;marker:none;visibility:visible;display:inline;overflow:visible;enable-background:accumulate"
           id="rect3788"
           width="90"
           height="90"
           x="0"
           y="962.36218" />
        <path
           style="font-size:xx-small;font-style:normal;font-variant:normal;font-weight:normal;font-stretch:normal;text-indent:0;text-align:start;text-decoration:none;line-height:normal;letter-spacing:normal;word-spacing:normal;text-transform:none;direction:ltr;block-progression:tb;writing-mode:lr-tb;text-anchor:start;baseline-shift:baseline;color:#000000;color-interpolation:sRGB;color-interpolation-filters:linearRGB;fill:#808080;fill-opacity:1;stroke:none;stroke-width:4.49998665;marker:none;visibility:visible;display:inline;overflow:visible;enable-background:accumulate;clip-rule:nonzero;color-rendering:auto;image-rendering:auto;shape-rendering:auto;text-rendering:auto;font-family:sans-serif;-inkscape-font-specification:sans-serif"
           d="m 44.99987,990.28271 c -8.935582,0 -16.22227,7.28666 -16.22227,16.22229 0,8.9356 7.286688,16.2223 16.22227,16.2223 8.935582,0 16.222271,-7.2867 16.222271,-16.2223 C 61.222141,997.56937 53.935452,990.28271 44.99987,990.28271 z m 0,4.00002 c 6.773887,0 12.222259,5.44839 12.222259,12.22227 0,6.7738 -5.448372,12.2222 -12.222259,12.2222 -6.773887,0 -12.222258,-5.4484 -12.222258,-12.2222 C 32.777612,999.73112 38.225983,994.28273 44.99987,994.28273 Z"
           id="path3796"
           inkscape:connector-curvature="0" />
      </g>
    </g>
  </g>
</svg>
