<?xml version="1.0" encoding="UTF-8" standalone="no"?>
<!-- Created with Inkscape (http://www.inkscape.org/) -->

<svg
   xmlns:dc="http://purl.org/dc/elements/1.1/"
   xmlns:cc="http://creativecommons.org/ns#"
   xmlns:rdf="http://www.w3.org/1999/02/22-rdf-syntax-ns#"
   xmlns:svg="http://www.w3.org/2000/svg"
   xmlns="http://www.w3.org/2000/svg"
   xmlns:sodipodi="http://sodipodi.sourceforge.net/DTD/sodipodi-0.dtd"
   xmlns:inkscape="http://www.inkscape.org/namespaces/inkscape"
   width="96"
   height="96"
   id="svg4874"
   version="1.1"
   inkscape:version="0.91+devel r"
   viewBox="0 0 96 96.000001"
   sodipodi:docname="calendar.svg">
  <defs
     id="defs4876" />
  <sodipodi:namedview
     id="base"
     pagecolor="#ffffff"
     bordercolor="#666666"
     borderopacity="1.0"
     inkscape:pageopacity="0.0"
     inkscape:pageshadow="2"
     inkscape:zoom="7.0249991"
     inkscape:cx="-11.409258"
     inkscape:cy="72.576504"
     inkscape:document-units="px"
     inkscape:current-layer="g4780"
     showgrid="true"
     showborder="true"
     fit-margin-top="0"
     fit-margin-left="0"
     fit-margin-right="0"
     fit-margin-bottom="0"
     inkscape:snap-bbox="true"
     inkscape:bbox-paths="true"
     inkscape:bbox-nodes="true"
     inkscape:snap-bbox-edge-midpoints="true"
     inkscape:snap-bbox-midpoints="true"
     inkscape:object-paths="true"
     inkscape:snap-intersection-paths="true"
     inkscape:object-nodes="true"
     inkscape:snap-smooth-nodes="true"
     inkscape:snap-midpoints="true"
     inkscape:snap-object-midpoints="true"
     inkscape:snap-center="true"
     showguides="true"
     inkscape:guide-bbox="true"
     inkscape:snap-global="true">
    <inkscape:grid
       type="xygrid"
       id="grid5451"
       empspacing="8" />
    <sodipodi:guide
       orientation="1,0"
       position="8,-8.0000001"
       id="guide4063" />
    <sodipodi:guide
       orientation="1,0"
       position="4,-8.0000001"
       id="guide4065" />
    <sodipodi:guide
       orientation="0,1"
       position="-8,88.000001"
       id="guide4067" />
    <sodipodi:guide
       orientation="0,1"
       position="-8,92.000001"
       id="guide4069" />
    <sodipodi:guide
       orientation="0,1"
       position="104,4"
       id="guide4071" />
    <sodipodi:guide
       orientation="0,1"
       position="-5,8.0000001"
       id="guide4073" />
    <sodipodi:guide
       orientation="1,0"
       position="92,-8.0000001"
       id="guide4075" />
    <sodipodi:guide
       orientation="1,0"
       position="88,-8.0000001"
       id="guide4077" />
    <sodipodi:guide
       orientation="0,1"
       position="-8,84.000001"
       id="guide4074" />
    <sodipodi:guide
       orientation="1,0"
       position="12,-8.0000001"
       id="guide4076" />
    <sodipodi:guide
       orientation="0,1"
       position="-5,12"
       id="guide4078" />
    <sodipodi:guide
       orientation="1,0"
       position="84,-9.0000001"
       id="guide4080" />
    <sodipodi:guide
       position="48,-8.0000001"
       orientation="1,0"
       id="guide4170" />
    <sodipodi:guide
       position="-8,48"
       orientation="0,1"
       id="guide4172" />
  </sodipodi:namedview>
  <metadata
     id="metadata4879">
    <rdf:RDF>
      <cc:Work
         rdf:about="">
        <dc:format>image/svg+xml</dc:format>
        <dc:type
           rdf:resource="http://purl.org/dc/dcmitype/StillImage" />
        <dc:title></dc:title>
      </cc:Work>
    </rdf:RDF>
  </metadata>
  <g
     inkscape:label="Layer 1"
     inkscape:groupmode="layer"
     id="layer1"
     transform="translate(67.857146,-78.50504)">
    <g
       transform="matrix(0,-1,-1,0,373.50506,516.50504)"
       id="g4845"
       style="display:inline">
      <g
         inkscape:export-ydpi="90"
         inkscape:export-xdpi="90"
         inkscape:export-filename="next01.png"
         transform="matrix(-0.9996045,0,0,1,575.94296,-611.00001)"
         id="g4778"
         inkscape:label="Layer 1">
        <g
           transform="matrix(-1,0,0,1,575.99999,611)"
           id="g4780"
           style="display:inline">
          <rect
             style="color:#000000;display:inline;overflow:visible;visibility:visible;fill:none;stroke:none;stroke-width:4;marker:none;enable-background:accumulate"
             id="rect4782"
             width="96.037987"
             height="96"
             x="-438.00244"
             y="345.36221"
             transform="scale(-1,1)" />
          <g
             transform="matrix(0,-0.99980223,-1.0001978,0,0,0)"
             style="font-style:normal;font-variant:normal;font-weight:normal;font-stretch:normal;font-size:48.03580475px;line-height:125%;font-family:Ubuntu;-inkscape-font-specification:Ubuntu;text-align:end;letter-spacing:0px;word-spacing:0px;writing-mode:lr-tb;text-anchor:end;fill:#808080;fill-opacity:1;stroke:none;stroke-width:1px;stroke-linecap:butt;stroke-linejoin:miter;stroke-opacity:1"
             id="text4416">
            <path
               d="m -397.70209,-392.6432 q 0,1.72929 -0.72054,3.36251 -0.6725,1.58518 -1.82536,3.17036 -1.15286,1.53715 -2.59393,3.0743 -1.44108,1.48911 -2.88215,2.93018 -0.81661,0.81661 -1.92143,1.92143 -1.05679,1.10483 -2.01751,2.30572 -0.96071,1.2009 -1.63321,2.30572 -0.62447,1.10482 -0.62447,1.92143 l 15.32342,0 0,3.79483 -20.17503,0 q -0.048,-0.28821 -0.048,-0.57643 0,-0.28821 0,-0.52839 0,-2.25769 0.72054,-4.17912 0.76857,-1.96947 1.96946,-3.69876 1.2009,-1.72928 2.69001,-3.26643 1.48911,-1.53715 2.93018,-2.97822 1.2009,-1.15286 2.25769,-2.25768 1.10482,-1.15286 1.92143,-2.25769 0.86464,-1.15286 1.345,-2.35375 0.5284,-1.2009 0.5284,-2.5459 0,-1.44107 -0.48036,-2.44982 -0.43233,-1.00876 -1.2009,-1.68126 -0.76857,-0.6725 -1.82536,-0.96071 -1.00875,-0.33625 -2.16161,-0.33625 -1.39304,0 -2.5459,0.38428 -1.15286,0.38429 -2.06554,0.91268 -0.91268,0.48036 -1.53714,1.05679 -0.62447,0.52839 -0.96072,0.81661 l -2.20965,-3.17036 q 0.43233,-0.48036 1.29697,-1.15286 0.86465,-0.72054 2.06554,-1.34501 1.2009,-0.62446 2.69001,-1.05678 1.48911,-0.43233 3.21839,-0.43233 5.23591,0 7.82984,2.44983 2.64197,2.40179 2.64197,6.82108 z"
               style=""
               id="path4162" />
            <path
               d="m -383.46173,-388.31997 q 7.25341,0.28821 10.61592,3.17036 3.41054,2.88215 3.41054,7.82984 0,2.20964 -0.76857,4.08304 -0.72054,1.8734 -2.25769,3.2184 -1.48911,1.345 -3.79482,2.11357 -2.30572,0.76858 -5.47609,0.76858 -1.24893,0 -2.54589,-0.19215 -1.29697,-0.19214 -2.40179,-0.48035 -1.10483,-0.28822 -1.96947,-0.57643 -0.86465,-0.28822 -1.24893,-0.48036 l 0.86464,-3.8909 q 0.81661,0.38428 2.64197,1.00875 1.8734,0.62447 4.5634,0.62447 2.16161,0 3.60269,-0.48036 1.48911,-0.48036 2.40179,-1.29697 0.91268,-0.81661 1.29696,-1.8734 0.43233,-1.10482 0.43233,-2.30571 0,-1.82537 -0.62447,-3.2184 -0.62446,-1.44108 -2.20965,-2.40179 -1.58518,-0.96072 -4.22715,-1.44108 -2.64197,-0.52839 -6.67697,-0.52839 0.28821,-2.35376 0.43232,-4.4193 0.19214,-2.06554 0.33625,-4.035 0.14411,-1.96947 0.24018,-3.8909 0.0961,-1.96947 0.19214,-4.13108 l 16.04396,0 0,3.79483 -12.15306,0 q -0.048,0.72053 -0.14411,1.96946 -0.0961,1.2009 -0.19214,2.5459 -0.0961,1.29697 -0.19214,2.5459 -0.0961,1.24893 -0.19215,1.96947 z"
               style=""
               id="path4164" />
          </g>
          <path
             style="color:#000000;font-style:normal;font-variant:normal;font-weight:normal;font-stretch:normal;font-size:medium;line-height:normal;font-family:sans-serif;text-indent:0;text-align:start;text-decoration:none;text-decoration-line:none;text-decoration-style:solid;text-decoration-color:#000000;letter-spacing:normal;word-spacing:normal;text-transform:none;direction:ltr;block-progression:tb;writing-mode:lr-tb;baseline-shift:baseline;text-anchor:start;white-space:normal;clip-rule:nonzero;display:inline;overflow:visible;visibility:visible;opacity:1;isolation:auto;mix-blend-mode:normal;color-interpolation:sRGB;color-interpolation-filters:linearRGB;solid-color:#000000;solid-opacity:1;fill:#808080;fill-opacity:1;fill-rule:nonzero;stroke:none;stroke-width:4.00079155;stroke-linecap:butt;stroke-linejoin:miter;stroke-miterlimit:4;stroke-dasharray:none;stroke-dashoffset:0;stroke-opacity:1;marker:none;color-rendering:auto;image-rendering:auto;shape-rendering:auto;text-rendering:auto;enable-background:accumulate"
             d="M 23.976562 8.0019531 C 18.943803 8.0601401 15.26124 7.881546 12.25 9.5429688 C 10.74438 10.37368 9.5531414 11.778707 8.8945312 13.533203 C 8.2359314 15.287699 7.9980469 17.369641 7.9980469 20 L 7.9980469 48.001953 L 7.9980469 76 C 7.9980469 78.630359 8.2359314 80.714254 8.8945312 82.46875 C 9.5531414 84.223246 10.74438 85.62632 12.25 86.457031 C 15.26124 88.118454 18.943803 87.941823 23.976562 88 L 23.988281 88 L 47.998047 88 L 72.009766 88 L 72.021484 88 C 77.054244 87.94182 80.736807 88.118454 83.748047 86.457031 C 85.253667 85.62632 86.444916 84.223246 87.103516 82.46875 C 87.762113 80.714254 88 78.630359 88 76 L 88 48.001953 L 83.998047 48.001953 L 83.998047 76 C 83.998047 78.369642 83.747742 80.022711 83.357422 81.0625 C 82.967112 82.102279 82.547973 82.550368 81.814453 82.955078 C 80.350163 83.762988 77.036307 83.941223 71.998047 84 L 71.974609 84 L 47.998047 84 L 24.021484 84 L 24 84 C 18.96042 83.941263 15.648104 83.763108 14.183594 82.955078 C 13.450074 82.550368 13.030935 82.102279 12.640625 81.0625 C 12.250305 80.022711 12 78.369642 12 76 L 12 48.001953 L 12 32 C 12 29.630358 12.250305 27.977279 12.640625 26.9375 C 13.030935 25.897711 13.450074 25.449632 14.183594 25.044922 C 15.650624 24.235492 18.967304 24.058477 24.021484 24 L 47.998047 24 L 71.998047 24 C 77.036307 24.05877 80.350163 24.237002 81.814453 25.044922 C 82.547973 25.449632 82.967112 25.897711 83.357422 26.9375 C 83.747742 27.977279 83.998047 29.630358 83.998047 32 L 83.998047 48 L 88 48 L 88 20 C 88 17.369641 87.762116 15.287699 87.103516 13.533203 C 86.444916 11.778707 85.253667 10.37368 83.748047 9.5429688 C 80.736807 7.881546 77.054244 8.0601301 72.021484 8.0019531 L 72.009766 8.0019531 L 72 8.0019531 L 72 16 L 66 16 L 66 8.0019531 L 30 8.0019531 L 30 16 L 24 16 L 24 8.0019531 L 23.988281 8.0019531 L 23.976562 8.0019531 z "
             transform="matrix(0,-1,-1.0003957,0,438.00245,441.36222)"
             id="path4410" />
          <path
             style="color:#000000;display:inline;overflow:visible;visibility:visible;fill:#808080;fill-opacity:1;fill-rule:nonzero;stroke:none;stroke-width:10;marker:none;enable-background:accumulate"
             d="M 30 0 L 24 1 L 24 8 L 30 8 L 30 0 z M 72 0 L 66 1 L 66 8 L 72 8 L 72 0 z "
             transform="matrix(0,-1,-1.0003957,0,438.00245,441.36222)"
             id="path4430" />
        </g>
      </g>
    </g>
  </g>
</svg>
